<?xml version="1.0" standalone="no"?>
<!DOCTYPE svg PUBLIC "-//W3C//DTD SVG 20010904//EN"
 "http://www.w3.org/TR/2001/REC-SVG-20010904/DTD/svg10.dtd">
<svg version="1.0" xmlns="http://www.w3.org/2000/svg"
 width="512.000000pt" height="512.000000pt" viewBox="0 0 512.000000 512.000000"
 preserveAspectRatio="xMidYMid meet">
<metadata>
Created by potrace 1.16, written by Peter Selinger 2001-2019
</metadata>
<g transform="translate(0.000000,512.000000) scale(0.100000,-0.100000)"
fill="#000000" stroke="none">
<path d="M2350 4688 c-232 -22 -496 -96 -710 -199 -220 -106 -386 -220 -556
-383 -186 -176 -319 -358 -438 -597 -401 -804 -254 -1773 368 -2425 634 -667
1640 -852 2466 -453 220 106 386 220 556 383 186 176 319 358 438 597 375 753
272 1656 -265 2311 -445 543 -1149 833 -1859 766z m-337 -1294 c17 -9 148
-131 290 -272 l257 -257 258 257 c141 141 273 264 292 274 73 38 189 15 246
-48 59 -64 76 -168 40 -238 -10 -19 -133 -151 -274 -292 l-257 -258 257 -257
c141 -142 264 -274 274 -293 36 -70 19 -174 -40 -238 -57 -63 -173 -86 -246
-48 -19 10 -151 133 -292 274 l-258 257 -257 -257 c-142 -141 -274 -264 -293
-274 -70 -36 -174 -19 -238 40 -63 57 -86 173 -48 246 10 19 133 151 274 293
l257 257 -257 258 c-141 141 -263 271 -271 287 -36 72 -30 148 15 215 61 89
177 121 271 74z"/>
</g>
</svg>
