<?xml version="1.0" standalone="no"?>
<!DOCTYPE svg PUBLIC "-//W3C//DTD SVG 20010904//EN"
 "http://www.w3.org/TR/2001/REC-SVG-20010904/DTD/svg10.dtd">
<svg version="1.0" xmlns="http://www.w3.org/2000/svg"
 width="512.000000pt" height="512.000000pt" viewBox="0 0 512.000000 512.000000"
 preserveAspectRatio="xMidYMid meet">
<metadata>
Created by potrace 1.16, written by Peter Selinger 2001-2019
</metadata>
<g transform="translate(0.000000,512.000000) scale(0.100000,-0.100000)"
fill="#000000" stroke="none">
<path d="M2445 5107 c-86 -28 -187 -113 -226 -189 -33 -65 -49 -148 -49 -255
l0 -102 -42 -11 c-297 -79 -601 -261 -800 -481 -248 -273 -392 -597 -427 -963
-7 -66 -11 -400 -11 -840 l0 -731 -255 -255 -255 -255 0 -132 0 -133 2180 0
2180 0 0 133 0 132 -255 255 -255 255 0 731 c0 767 -4 873 -45 1054 -131 591
-598 1073 -1192 1230 l-43 11 0 102 c0 108 -16 190 -50 257 -28 55 -109 131
-176 165 -49 25 -71 30 -148 32 -56 2 -107 -2 -131 -10z"/>
<path d="M2045 468 c26 -207 146 -365 333 -440 49 -19 75 -23 182 -23 107 0
133 4 182 23 187 75 307 233 333 440 l7 52 -522 0 -522 0 7 -52z"/>
</g>
</svg>
