<?xml version="1.0" standalone="no"?>
<!DOCTYPE svg PUBLIC "-//W3C//DTD SVG 20010904//EN"
 "http://www.w3.org/TR/2001/REC-SVG-20010904/DTD/svg10.dtd">
<svg version="1.0" xmlns="http://www.w3.org/2000/svg"
 width="512.000000pt" height="512.000000pt" viewBox="0 0 512.000000 512.000000"
 preserveAspectRatio="xMidYMid meet">
<metadata>
Created by potrace 1.16, written by Peter Selinger 2001-2019
</metadata>
<g transform="translate(0.000000,512.000000) scale(0.100000,-0.100000)"
fill="#000000" stroke="none">
<path d="M832 4459 c-71 -28 -144 -101 -171 -174 -21 -56 -21 -57 -21 -1725 0
-1661 0 -1670 21 -1724 25 -67 86 -133 154 -166 l50 -25 1202 -3 c1194 -2
1202 -2 1257 18 67 26 133 87 166 155 l25 50 3 498 3 498 -30 29 c-25 25 -38
30 -78 30 -42 0 -54 -5 -79 -31 l-29 -30 -5 -467 c-3 -257 -9 -475 -14 -485
-23 -48 14 -47 -1205 -47 -863 0 -1146 3 -1166 12 -58 26 -55 -75 -55 1687 0
1235 3 1626 12 1646 26 58 -32 55 1208 55 1240 0 1182 3 1208 -55 9 -19 12
-160 12 -526 0 -538 0 -537 52 -573 44 -31 134 -11 158 33 6 13 10 207 10 555
0 518 -1 537 -21 591 -28 74 -100 146 -174 174 -55 21 -63 21 -1248 20 -1173
0 -1193 0 -1245 -20z"/>
<path d="M3764 3276 c-37 -37 -45 -86 -23 -128 7 -12 110 -123 231 -247 l218
-226 -1262 -5 c-1332 -5 -1293 -4 -1318 -50 -13 -24 -13 -96 0 -120 25 -46
-14 -45 1320 -50 l1265 -5 -216 -220 c-119 -121 -223 -231 -232 -245 -20 -29
-22 -78 -5 -115 23 -51 104 -71 156 -38 15 9 139 132 276 272 169 174 256 272
273 305 49 96 47 228 -5 318 -28 50 -497 542 -544 571 -45 29 -95 22 -134 -17z"/>
</g>
</svg>
