<?xml version="1.0" standalone="no"?>
<!DOCTYPE svg PUBLIC "-//W3C//DTD SVG 20010904//EN"
 "http://www.w3.org/TR/2001/REC-SVG-20010904/DTD/svg10.dtd">
<svg version="1.0" xmlns="http://www.w3.org/2000/svg"
 width="123.000000pt" height="118.000000pt" viewBox="0 0 123.000000 118.000000"
 preserveAspectRatio="xMidYMid meet">
<metadata>
Created by potrace 1.16, written by Peter Selinger 2001-2019
</metadata>
<g transform="translate(0.000000,118.000000) scale(0.100000,-0.100000)"
fill="#000000" stroke="none">
<path d="M422 923 c-60 -29 -62 -41 -62 -358 0 -315 3 -330 61 -360 21 -11 51
-15 102 -13 61 3 72 6 75 22 6 27 -15 36 -84 36 -98 0 -94 -12 -94 317 0 258
1 281 18 296 16 15 47 17 219 17 246 0 233 8 233 -142 0 -110 9 -135 44 -122
13 5 16 24 16 121 0 196 -10 203 -297 203 -162 0 -204 -3 -231 -17z"/>
<path d="M480 736 c0 -13 7 -27 16 -30 20 -8 298 -8 318 0 9 3 16 17 16 30 l0
24 -175 0 -175 0 0 -24z"/>
<path d="M492 641 c-8 -5 -12 -17 -10 -27 3 -18 15 -19 173 -19 158 0 170 1
173 19 2 10 -2 22 -10 27 -7 5 -80 9 -163 9 -82 0 -156 -4 -163 -9z"/>
<path d="M809 443 c-94 -93 -100 -101 -116 -165 -23 -88 -17 -94 73 -72 64 16
75 23 152 98 121 117 136 154 83 207 -20 20 -39 29 -62 29 -27 0 -47 -15 -130
-97z"/>
</g>
</svg>
