<?xml version="1.0" standalone="no"?>
<!DOCTYPE svg PUBLIC "-//W3C//DTD SVG 20010904//EN"
 "http://www.w3.org/TR/2001/REC-SVG-20010904/DTD/svg10.dtd">
<svg version="1.0" xmlns="http://www.w3.org/2000/svg"
 width="512.000000pt" height="512.000000pt" viewBox="0 0 512.000000 512.000000"
 preserveAspectRatio="xMidYMid meet">
<metadata>
Created by potrace 1.16, written by Peter Selinger 2001-2019
</metadata>
<g transform="translate(0.000000,512.000000) scale(0.100000,-0.100000)"
fill="#000000" stroke="none">
<path d="M2520 5099 c-46 -18 -82 -49 -220 -185 l-165 -163 -95 93 c-63 61
-115 102 -155 122 -56 27 -68 29 -175 29 -180 0 -171 7 -562 -384 -356 -355
-368 -370 -389 -500 -23 -144 25 -261 160 -396 l91 -89 -159 -161 c-87 -88
-168 -178 -179 -200 -28 -57 -45 -149 -37 -203 17 -116 37 -146 214 -325 91
-93 178 -175 193 -183 32 -17 111 -18 141 -3 12 6 111 99 220 207 l197 197 0
-1200 c0 -1336 -4 -1250 70 -1401 85 -174 259 -308 445 -344 43 -8 316 -10
965 -8 l905 3 67 26 c98 38 171 85 241 156 76 77 129 163 165 268 l27 80 3
1473 3 1472 -1183 0 -1183 0 536 538 c296 295 542 547 548 559 16 31 14 100
-4 138 -26 52 -331 347 -390 375 -73 34 -218 39 -295 9z m-687 -489 l82 -79
-342 -343 -343 -343 -71 70 c-89 88 -104 115 -89 159 7 21 105 127 303 324
291 290 294 292 336 292 39 0 48 -6 124 -80z m625 -1858 c66 -47 63 7 60
-1026 -3 -932 -3 -935 -24 -963 -64 -85 -174 -85 -238 0 l-21 28 0 949 c0 944
0 949 21 977 47 64 139 80 202 35z m652 7 c20 -11 45 -35 56 -52 18 -31 19
-67 22 -955 2 -897 2 -924 -17 -967 -45 -102 -179 -116 -246 -27 -20 27 -20
45 -23 973 l-2 946 23 34 c26 39 78 69 121 69 15 0 45 -9 66 -21z m668 1 c18
-11 41 -34 52 -52 20 -32 20 -53 20 -973 0 -904 -1 -941 -19 -969 -60 -91
-197 -88 -248 6 -17 31 -18 87 -18 970 0 935 0 937 21 965 52 70 129 91 192
53z"/>
<path d="M3682 4130 c-276 -81 -514 -155 -527 -164 -59 -38 -114 -123 -115
-173 l0 -23 725 0 725 0 0 138 c0 96 -5 154 -16 191 -30 102 -135 181 -239
180 -34 0 -208 -47 -553 -149z"/>
</g>
</svg>
