<?xml version="1.0" standalone="no"?>
<!DOCTYPE svg PUBLIC "-//W3C//DTD SVG 20010904//EN"
 "http://www.w3.org/TR/2001/REC-SVG-20010904/DTD/svg10.dtd">
<svg version="1.0" xmlns="http://www.w3.org/2000/svg"
 width="512.000000pt" height="512.000000pt" viewBox="0 0 512.000000 512.000000"
 preserveAspectRatio="xMidYMid meet">
<metadata>
Created by potrace 1.16, written by Peter Selinger 2001-2019
</metadata>
<g transform="translate(0.000000,512.000000) scale(0.100000,-0.100000)"
fill="#000000" stroke="none">
<path d="M166 4085 c-143 -51 -209 -226 -139 -366 31 -60 92 -112 151 -129 52
-14 4712 -14 4764 0 59 17 120 69 151 129 72 144 -3 330 -151 371 -25 7 -798
10 -2387 10 -1972 -1 -2356 -3 -2389 -15z"/>
<path d="M936 2805 c-123 -44 -193 -171 -166 -300 19 -91 94 -172 181 -195 24
-7 581 -9 1631 -8 l1593 3 41 22 c48 26 100 82 122 132 20 46 20 156 0 202
-22 50 -74 106 -122 132 l-41 22 -1600 2 c-1356 2 -1606 0 -1639 -12z"/>
<path d="M1955 1524 c-222 -79 -219 -413 4 -489 38 -13 128 -15 601 -15 611 0
609 0 682 60 150 123 102 382 -81 445 -64 22 -1144 21 -1206 -1z"/>
</g>
</svg>
