<?xml version="1.0" standalone="no"?>
<!DOCTYPE svg PUBLIC "-//W3C//DTD SVG 20010904//EN"
 "http://www.w3.org/TR/2001/REC-SVG-20010904/DTD/svg10.dtd">
<svg version="1.0" xmlns="http://www.w3.org/2000/svg"
 width="512.000000pt" height="512.000000pt" viewBox="0 0 512.000000 512.000000"
 preserveAspectRatio="xMidYMid meet">
<metadata>
Created by potrace 1.16, written by Peter Selinger 2001-2019
</metadata>
<g transform="translate(0.000000,512.000000) scale(0.100000,-0.100000)"
fill="#000000" stroke="none">
<path d="M2330 5114 c-360 -43 -606 -112 -887 -248 -249 -122 -459 -267 -654
-453 -415 -398 -670 -887 -766 -1468 -26 -159 -26 -623 0 -778 46 -273 120
-506 237 -742 365 -741 1043 -1248 1867 -1397 116 -21 158 -23 433 -23 275 0
317 2 433 23 823 149 1502 657 1867 1397 117 236 191 469 237 742 26 155 26
619 0 778 -96 580 -352 1070 -766 1468 -379 362 -860 598 -1391 682 -101 16
-524 29 -610 19z m9 -1291 c138 -57 213 -221 166 -364 -16 -49 -41 -77 -286
-324 -148 -149 -269 -274 -269 -278 0 -4 445 -7 989 -7 1137 0 1055 6 1153
-91 45 -45 60 -68 74 -114 22 -79 15 -158 -22 -225 -33 -62 -70 -94 -144 -129
l-55 -26 -999 -3 -1000 -3 261 -262 c164 -164 270 -279 284 -307 20 -37 24
-60 24 -130 0 -99 -17 -139 -86 -208 -80 -79 -195 -102 -306 -61 -55 20 -89
52 -595 558 -600 599 -583 577 -583 711 0 62 5 84 27 125 19 36 172 195 560
581 293 293 547 539 565 548 74 37 165 41 242 9z"/>
</g>
</svg>
