<?xml version="1.0" standalone="no"?>
<!DOCTYPE svg PUBLIC "-//W3C//DTD SVG 20010904//EN"
 "http://www.w3.org/TR/2001/REC-SVG-20010904/DTD/svg10.dtd">
<svg version="1.0" xmlns="http://www.w3.org/2000/svg"
 width="512.000000pt" height="512.000000pt" viewBox="0 0 512.000000 512.000000"
 preserveAspectRatio="xMidYMid meet">
<metadata>
Created by potrace 1.16, written by Peter Selinger 2001-2019
</metadata>
<g transform="translate(0.000000,512.000000) scale(0.100000,-0.100000)"
fill="#000000" stroke="none">
<path d="M2160 5100 c-573 -98 -1044 -418 -1337 -910 -164 -275 -247 -565
-260 -900 -24 -633 261 -1219 775 -1599 46 -33 89 -61 95 -61 13 0 297 280
297 292 0 3 -24 21 -52 38 -221 135 -431 367 -551 605 -315 628 -139 1397 418
1829 269 210 576 315 915 316 484 0 923 -229 1213 -633 138 -192 241 -463 262
-687 3 -36 8 -89 11 -117 l5 -53 100 0 c94 0 99 1 103 23 19 89 29 146 42 242
16 127 27 165 62 218 24 36 25 41 13 85 -39 148 -154 379 -273 547 -80 114
-307 343 -419 423 -266 190 -540 301 -854 347 -142 21 -430 18 -565 -5z"/>
<path d="M2380 4404 c-19 -8 -50 -29 -68 -47 -60 -58 -62 -75 -62 -636 0 -278
4 -523 9 -544 14 -58 51 -105 105 -132 l50 -25 616 0 617 0 44 23 c24 13 58
43 74 66 27 38 30 51 30 115 0 93 -28 141 -106 180 l-53 26 -488 0 -488 0 0
418 c0 384 -2 420 -19 457 -45 97 -162 142 -261 99z"/>
<path d="M4387 3609 c-31 -24 -42 -61 -57 -184 -42 -339 -148 -653 -319 -940
-382 -640 -1065 -1068 -1773 -1111 l-108 -7 0 242 c0 196 -3 248 -15 271 -20
38 -43 50 -97 50 l-43 0 -452 -452 c-314 -314 -456 -462 -461 -483 -5 -16 -5
-43 -1 -60 6 -21 144 -166 461 -482 l454 -453 46 0 c35 0 54 6 75 24 l28 24 3
269 3 268 162 32 c742 146 1396 586 1815 1221 304 460 452 961 452 1530 0 175
-8 216 -51 246 -33 22 -91 20 -122 -5z"/>
</g>
</svg>
