<?xml version="1.0" standalone="no"?>
<!DOCTYPE svg PUBLIC "-//W3C//DTD SVG 20010904//EN"
 "http://www.w3.org/TR/2001/REC-SVG-20010904/DTD/svg10.dtd">
<svg version="1.0" xmlns="http://www.w3.org/2000/svg"
 width="512.000000pt" height="512.000000pt" viewBox="0 0 512.000000 512.000000"
 preserveAspectRatio="xMidYMid meet">
<metadata>
Created by potrace 1.16, written by Peter Selinger 2001-2019
</metadata>
<g transform="translate(0.000000,512.000000) scale(0.100000,-0.100000)"
fill="#000000" stroke="none">
<path d="M951 4689 c-225 -38 -428 -222 -507 -459 -18 -52 -19 -116 -22 -1039
-2 -814 0 -983 11 -978 68 26 1246 337 1277 337 22 0 56 -6 74 -14 18 -7 149
-91 290 -185 142 -95 264 -175 271 -177 8 -3 233 126 502 287 298 179 504 297
530 303 30 6 54 6 82 -3 22 -6 206 -122 409 -256 203 -135 374 -245 380 -245
6 0 14 15 17 33 3 17 5 451 3 962 l-3 930 -22 65 c-67 196 -222 352 -417 418
l-81 27 -1370 1 c-778 1 -1393 -2 -1424 -7z m787 -889 c65 -33 109 -76 144
-143 19 -35 23 -58 23 -137 0 -79 -4 -102 -23 -137 -33 -63 -74 -106 -134
-139 -48 -26 -62 -29 -148 -29 -79 0 -102 4 -137 23 -63 33 -106 74 -139 134
-26 48 -29 62 -29 148 0 79 4 102 23 137 35 67 79 110 144 143 52 26 72 30
138 30 66 0 86 -4 138 -30z"/>
<path d="M2906 2015 c-311 -187 -503 -296 -526 -300 -21 -4 -56 -1 -79 5 -24
6 -165 93 -336 207 l-294 195 -623 -169 -623 -170 1 -204 c0 -193 2 -208 27
-285 64 -193 220 -349 417 -417 l65 -22 935 -3 c658 -2 946 0 973 8 85 25 146
112 147 210 0 30 7 99 15 153 56 372 303 684 658 829 42 18 77 34 77 37 -1 9
-324 221 -335 221 -6 -1 -230 -133 -499 -295z"/>
<path d="M3953 1685 c-32 -16 -62 -41 -79 -67 -28 -40 -29 -45 -32 -189 l-3
-148 -148 -3 c-144 -3 -149 -4 -189 -32 -106 -73 -122 -236 -34 -330 51 -54
93 -66 240 -66 l132 0 0 -135 c0 -154 11 -190 76 -243 98 -81 244 -60 319 46
30 43 30 46 33 187 l3 144 144 3 c141 3 144 3 187 33 106 75 127 221 46 319
-53 65 -89 76 -243 76 l-135 0 0 133 c0 107 -4 140 -19 172 -52 113 -183 157
-298 100z"/>
</g>
</svg>
