<?xml version="1.0" standalone="no"?>
<!DOCTYPE svg PUBLIC "-//W3C//DTD SVG 20010904//EN"
 "http://www.w3.org/TR/2001/REC-SVG-20010904/DTD/svg10.dtd">
<svg version="1.0" xmlns="http://www.w3.org/2000/svg"
 width="512.000000pt" height="512.000000pt" viewBox="0 0 512.000000 512.000000"
 preserveAspectRatio="xMidYMid meet">
<metadata>
Created by potrace 1.16, written by Peter Selinger 2001-2019
</metadata>
<g transform="translate(0.000000,512.000000) scale(0.100000,-0.100000)"
fill="#000000" stroke="none">
<path d="M2310 4470 c-759 -105 -1377 -632 -1596 -1362 -58 -195 -69 -284 -69
-553 1 -233 2 -259 27 -375 102 -475 356 -878 731 -1158 237 -177 499 -293
797 -354 102 -20 142 -23 365 -23 233 0 258 2 375 27 774 166 1342 734 1508
1508 25 117 27 141 27 380 0 240 -2 263 -28 381 -83 387 -255 708 -527 979
-270 271 -593 445 -973 526 -107 23 -151 27 -347 29 -124 2 -254 0 -290 -5z
m-671 -1536 c104 -33 192 -112 239 -212 24 -50 27 -69 27 -162 0 -93 -3 -111
-27 -163 -35 -74 -121 -160 -195 -195 -52 -24 -70 -27 -163 -27 -99 0 -110 2
-171 32 -80 39 -150 111 -187 191 -24 50 -27 69 -27 162 0 93 3 112 27 162 84
180 290 272 477 212z m1040 0 c104 -33 192 -112 239 -212 24 -50 27 -69 27
-162 0 -93 -3 -111 -27 -163 -35 -74 -121 -160 -195 -195 -52 -24 -70 -27
-163 -27 -99 0 -110 2 -171 32 -80 39 -150 111 -187 191 -24 50 -27 69 -27
162 0 93 3 112 27 162 84 180 290 272 477 212z m1040 0 c104 -33 192 -112 239
-212 24 -50 27 -69 27 -162 0 -93 -3 -111 -27 -163 -35 -74 -121 -160 -195
-195 -52 -24 -70 -27 -163 -27 -99 0 -110 2 -171 32 -80 39 -150 111 -187 191
-24 50 -27 69 -27 162 0 93 3 112 27 162 84 180 290 272 477 212z"/>
</g>
</svg>
