<?xml version="1.0" standalone="no"?>
<!DOCTYPE svg PUBLIC "-//W3C//DTD SVG 20010904//EN"
 "http://www.w3.org/TR/2001/REC-SVG-20010904/DTD/svg10.dtd">
<svg version="1.0" xmlns="http://www.w3.org/2000/svg"
 width="512.000000pt" height="512.000000pt" viewBox="0 0 512.000000 512.000000"
 preserveAspectRatio="xMidYMid meet">
<metadata>
Created by potrace 1.16, written by Peter Selinger 2001-2019
</metadata>
<g transform="translate(0.000000,512.000000) scale(0.100000,-0.100000)"
fill="#000000" stroke="none">
<path d="M1285 5114 c-22 -2 -101 -11 -175 -20 -577 -67 -978 -233 -1085 -448
l-25 -50 0 -1820 0 -1821 25 -53 c123 -264 703 -451 1475 -478 102 -3 258 -1
348 4 l163 11 67 -49 c242 -176 493 -295 752 -357 154 -37 408 -43 575 -15
310 53 644 217 965 472 211 168 591 574 721 769 38 57 41 146 8 201 -114 186
-517 615 -750 796 -350 273 -713 439 -1030 470 l-69 7 -2 931 -3 931 -24 45
c-37 70 -78 117 -145 164 -197 141 -487 231 -941 292 -86 12 -217 17 -465 19
-190 2 -363 1 -385 -1z m845 -198 c484 -64 855 -205 924 -351 23 -48 10 -88
-47 -142 -230 -223 -966 -361 -1669 -312 -401 27 -743 104 -959 215 -235 121
-260 229 -82 347 194 128 546 220 993 261 120 10 720 -2 840 -18z m-1722 -804
c438 -173 1142 -235 1767 -156 350 44 711 151 855 254 16 11 31 20 34 20 3 0
6 -205 6 -455 0 -433 -1 -458 -20 -494 -73 -144 -425 -278 -895 -342 -217 -30
-687 -37 -920 -15 -518 50 -915 180 -1032 338 l-23 32 0 467 0 467 74 -42 c41
-24 110 -57 154 -74z m2662 -1227 l0 -155 -32 0 c-49 0 -187 -26 -293 -55
-422 -115 -879 -439 -1302 -925 l-31 -34 -153 12 c-441 37 -851 154 -1008 289
-74 63 -71 39 -71 553 0 253 3 460 6 460 3 0 18 -9 34 -20 87 -62 321 -147
535 -195 265 -59 529 -85 865 -85 430 0 803 50 1100 147 104 33 287 116 325
146 11 9 21 17 23 17 1 0 2 -70 2 -155z m349 -359 c264 -57 558 -210 841 -437
186 -149 442 -414 629 -652 l53 -67 -18 -28 c-64 -99 -304 -371 -448 -509
-341 -325 -676 -530 -1006 -615 -163 -43 -375 -50 -537 -19 -281 54 -567 197
-863 431 -145 115 -444 417 -578 585 -61 77 -112 146 -112 152 0 18 179 238
297 366 453 490 952 785 1379 815 118 8 261 0 363 -22z m-3004 -806 c190 -74
476 -138 730 -162 66 -6 121 -13 123 -14 2 -1 -12 -25 -32 -54 -63 -92 -61
-159 9 -259 82 -119 258 -324 406 -472 168 -170 169 -159 -20 -159 -577 0
-1149 125 -1368 299 -87 68 -83 44 -83 520 l0 420 68 -40 c37 -22 112 -57 167
-79z"/>
<path d="M555 3608 c-32 -18 -44 -40 -45 -79 0 -56 24 -77 113 -100 97 -24
356 -69 403 -69 48 0 84 37 84 85 0 71 -23 87 -155 105 -44 7 -143 25 -219 41
-157 33 -154 32 -181 17z"/>
<path d="M2545 3599 c-44 -10 -147 -30 -229 -43 -171 -27 -191 -38 -191 -107
0 -33 6 -46 28 -65 35 -30 59 -30 239 0 201 35 284 55 312 77 63 50 19 162
-62 158 -9 0 -53 -9 -97 -20z"/>
<path d="M1303 3484 c-32 -32 -32 -96 0 -128 22 -22 35 -24 170 -31 81 -4 213
-4 293 0 131 7 148 10 172 30 35 30 37 94 4 127 -22 23 -25 23 -320 24 -295 0
-297 0 -319 -22z"/>
<path d="M535 2395 c-18 -17 -25 -35 -25 -63 0 -59 27 -78 157 -107 144 -33
350 -64 377 -57 41 10 66 43 66 87 0 68 -22 80 -180 105 -74 11 -172 30 -218
40 -112 27 -147 26 -177 -5z"/>
<path d="M1302 2287 c-32 -34 -30 -96 4 -128 24 -22 35 -24 143 -28 113 -3
119 -2 147 22 40 35 41 98 1 133 -26 23 -36 24 -151 24 -115 0 -124 -1 -144
-23z"/>
<path d="M2940 2371 c-717 -156 -1042 -984 -627 -1596 54 -79 177 -202 256
-255 87 -58 230 -124 326 -150 121 -33 339 -38 465 -12 518 108 874 587 820
1102 -25 240 -114 440 -272 606 -136 143 -286 235 -473 290 -123 36 -366 44
-495 15z m408 -181 c154 -37 275 -104 396 -219 346 -332 346 -880 0 -1212
-111 -106 -194 -155 -344 -205 -77 -25 -98 -28 -235 -28 -127 -1 -162 2 -228
22 -295 85 -511 301 -598 597 -50 174 -31 398 50 570 117 250 331 422 596 480
94 21 266 18 363 -5z"/>
<path d="M3344 1960 c-45 -9 -139 -53 -149 -70 -3 -5 -30 -10 -58 -10 -224 0
-439 -181 -486 -408 -56 -268 112 -538 375 -606 178 -46 364 5 495 135 96 96
148 212 149 335 0 36 6 59 20 77 45 57 64 118 65 207 0 73 -4 94 -29 147 -65
142 -230 225 -382 193z m136 -192 c112 -57 130 -201 33 -275 -50 -39 -135 -44
-182 -11 -51 34 -73 71 -79 126 -5 55 10 91 56 135 52 50 107 57 172 25z
m-377 -299 c31 -63 93 -126 159 -160 32 -17 66 -24 131 -27 101 -5 101 -6 45
-94 -36 -57 -73 -90 -142 -126 -69 -36 -196 -38 -268 -5 -120 55 -201 179
-201 308 0 127 81 254 196 305 l42 19 5 -82 c4 -62 12 -96 33 -138z"/>
<path d="M535 1285 c-33 -33 -34 -93 -2 -123 35 -33 360 -102 481 -102 67 0
96 26 96 86 0 64 -27 82 -151 100 -57 8 -156 26 -219 40 -147 31 -174 31 -205
-1z"/>
</g>
</svg>
